<svg aria-hidden="true" style="position: absolute; width: 0; height: 0; overflow: hidden;" version="1.1" xmlns="http://www.w3.org/2000/svg" xmlns:xlink="http://www.w3.org/1999/xlink">
<defs>
<symbol id="icon-logo" viewBox="0 0 32 32">
<path fill="none" stroke="#499a18" style="stroke: var(--color1, #499a18)" stroke-linejoin="round" stroke-linecap="round" stroke-miterlimit="4" stroke-width="1.4545" d="M3.676 30.468l12.208-25.139s-10.682 4.867-12.972 10.543c-2.289 5.676-1.564 10.897 0 14.596"></path>
<path fill="none" stroke="#499a18" style="stroke: var(--color1, #499a18)" stroke-linejoin="round" stroke-linecap="butt" stroke-miterlimit="4" stroke-width="1.4545" d="M2.903 30.534s37.402-43.043 25.193-24.391c-12.211 18.65 1.244 3.505-5.555 14.321-6.797 10.816-19.636 10.073-19.636 10.073z"></path>
</symbol>
<symbol id="icon-pinterest" viewBox="0 0 32 32">
<path d="M16 2.667c-7.343 0.027-13.286 5.986-13.286 13.333 0 5.599 3.452 10.393 8.343 12.368l0.089 0.032c-0.133-1.053-0.227-2.667 0.040-3.827l1.56-6.627s-0.4-0.8-0.4-1.973c0-1.853 1.080-3.227 2.427-3.227 1.133 0 1.693 0.853 1.693 1.867 0 1.147-0.733 2.853-1.12 4.44-0.32 1.333 0.667 2.413 1.987 2.413 2.373 0 4.187-2.493 4.187-6.093 0-3.2-2.293-5.413-5.573-5.413-0.075-0.004-0.164-0.006-0.253-0.006-3.188 0-5.773 2.584-5.773 5.773v0.006c0 1.147 0.44 2.373 0.987 3.040 0.107 0.133 0.12 0.253 0.080 0.387l-0.373 1.507c-0.053 0.24-0.2 0.307-0.44 0.187-1.68-0.787-2.72-3.2-2.72-5.173 0-4.2 3.067-8.053 8.827-8.053 4.613 0 8.227 3.28 8.227 7.693 0 4.6-2.907 8.293-6.933 8.293-1.333 0-2.613-0.707-3.040-1.533l-0.84 3.16c-0.437 1.358-1.010 2.538-1.722 3.618l0.034-0.055 0.034-0.056c1.17 0.372 2.516 0.587 3.911 0.587 7.364 0 13.333-5.97 13.333-13.333 0-7.347-5.942-13.306-13.282-13.333h-0.003l-0.001-0.002z"></path>
</symbol>
<symbol id="icon-twitter" viewBox="0 0 32 32">
<path d="M29.333 7.84c-1 0.493-2 0.667-3.173 0.827 1.173-0.667 2-1.667 2.333-3-0.985 0.601-2.131 1.059-3.354 1.31l-0.139 0.024c-1.029-1.014-2.437-1.647-3.992-1.667l-0.004-0h-0.004c-2.84 0-5.333 2.507-5.333 5.507 0 0.493 0 0.827 0.173 1.16-4.566-0.175-8.598-2.324-11.289-5.612l-0.022-0.027-0.022-0.028c-0.426 0.721-0.677 1.589-0.677 2.516 0 0.119 0.004 0.237 0.012 0.354l-0.001-0.016-0.001-0.015c0.033 1.87 1 3.507 2.453 4.468l0.020 0.013 0.021 0.013c-0.84 0-1.667-0.333-2.507-0.667 0 2.667 1.84 4.84 4.333 5.333-0.493 0.173-1 0.173-1.493 0.173-0.333 0-0.667 0-1-0.173 0.667 2.173 2.667 3.84 5.173 3.84-1.792 1.454-4.1 2.335-6.614 2.335-0.008 0-0.016 0-0.024-0h0.001l-0.202-0.002h-1.333c2.365 1.509 5.236 2.429 8.316 2.493h0.017c10 0 15.507-8.333 15.507-15.507v-0.667c1.133-0.783 2.070-1.765 2.779-2.903l0.024-0.041 0.024-0.042h-0.002z"></path>
</symbol>
<symbol id="icon-facebook" viewBox="0 0 32 32">
<path d="M13.040 29.333l-0.040-11.667h-5v-5h5v-3.333c0-4.493 2.787-6.667 6.8-6.667 1.92 0 3.573 0.133 4.053 0.2v4.707h-2.787c-2.173 0-2.6 1.040-2.6 2.56v2.533h6.2l-1.667 5h-4.533v11.667h-5.426z"></path>
</symbol>
<symbol id="icon-instagram" viewBox="0 0 32 32">
<path d="M17.36 2.667c2.4 0 2.907 0.027 4.133 0.080 1.413 0.067 2.387 0.293 3.227 0.627 0.88 0.333 1.627 0.8 2.36 1.533 0.747 0.733 1.2 1.48 1.547 2.36 0.333 0.84 0.547 1.813 0.613 3.24 0.067 1.267 0.080 1.76 0.080 4.427v2.133c0 2.667-0.013 3.16-0.080 4.427-0.022 1.189-0.254 2.318-0.659 3.361l0.023-0.067 0.022-0.067c-0.347 0.88-0.8 1.627-1.533 2.36-0.654 0.663-1.445 1.189-2.328 1.532l-0.045 0.015c-0.84 0.333-1.813 0.547-3.227 0.613-1.267 0.067-1.773 0.080-4.44 0.080h-2.12c-2.667 0-3.16-0.013-4.44-0.080-1.189-0.022-2.318-0.254-3.361-0.659l0.067 0.023 0.067 0.022c-0.922-0.354-1.709-0.875-2.358-1.532l-0.002-0.002c-0.655-0.641-1.176-1.418-1.517-2.285l-0.015-0.044-0.015-0.045c-0.37-0.953-0.593-2.056-0.613-3.209l-0-0.008v-0.010c-0.053-1.027-0.084-2.23-0.084-3.44 0-0.256 0.001-0.511 0.004-0.766l-0 0.039v0.034-2.733c0-2.4 0.027-2.907 0.080-4.133 0.067-1.413 0.293-2.387 0.613-3.227 0.347-0.88 0.8-1.627 1.547-2.36 0.634-0.656 1.408-1.174 2.274-1.505l0.043-0.014 0.043-0.014c0.952-0.374 2.053-0.602 3.205-0.626l0.010-0h0.012c1.227-0.053 1.733-0.080 4.133-0.080h2.734zM17.387 5.067h-2.787c-2.307 0-2.8 0.027-4 0.080-1.293 0.053-2 0.267-2.467 0.453-0.602 0.224-1.115 0.565-1.532 0.999l-0.001 0.001c-0.466 0.467-0.76 0.907-1 1.533-0.173 0.467-0.4 1.173-0.453 2.48-0.053 1.2-0.080 1.68-0.080 4v2.773c0 2.32 0.027 2.8 0.080 4 0.053 1.293 0.267 2 0.453 2.467 0.24 0.627 0.533 1.067 1 1.533s0.907 0.76 1.533 1c0.467 0.187 1.173 0.4 2.48 0.453 1.293 0.067 1.76 0.080 4.64 0.080h1.48c2.893 0 3.347-0.013 4.653-0.080 1.293-0.053 2-0.267 2.467-0.453 0.602-0.224 1.115-0.565 1.532-0.999l0.001-0.001c0.466-0.467 0.76-0.907 1-1.533 0.187-0.467 0.4-1.173 0.453-2.467 0.067-1.307 0.080-1.76 0.080-4.653v-1.467c0-2.893-0.013-3.36-0.080-4.667-0.053-1.293-0.267-2-0.453-2.467-0.227-0.601-0.567-1.112-0.998-1.531l-0.001-0.001-0.001-0.001c-0.413-0.426-0.915-0.763-1.477-0.981l-0.028-0.010-0.028-0.009c-0.731-0.278-1.576-0.444-2.458-0.453l-0.004-0h-0.005c-1.017-0.053-2.207-0.083-3.404-0.083-0.22 0-0.44 0.001-0.659 0.003l0.034-0h0.030l0.001 0.001zM16 9.147c3.782 0 6.847 3.066 6.847 6.847s-3.066 6.847-6.847 6.847v0c-3.781 0-6.847-3.066-6.847-6.847s3.066-6.847 6.847-6.847v0zM16 11.547c-2.456 0-4.447 1.991-4.447 4.447s1.991 4.447 4.447 4.447v0c2.456 0 4.447-1.991 4.447-4.447s-1.991-4.447-4.447-4.447v0zM23.107 7.28c0.884 0 1.6 0.716 1.6 1.6s-0.716 1.6-1.6 1.6v0c-0.884 0-1.6-0.716-1.6-1.6s0.716-1.6 1.6-1.6v0z"></path>
</symbol>
<symbol id="icon-arrow" viewBox="0 0 48 32">
<path stroke-linejoin="miter" stroke-linecap="round" stroke-miterlimit="4" stroke-width="4" d="M24 24.080l-16-16M24 24.080l16-16"></path>
</symbol>
</defs>
</svg>
