<svg xmlns="http://www.w3.org/2000/svg" aria-hidden="true" style="position:absolute;width:0;height:0;overflow:hidden"><defs><symbol id="icon-logo" viewBox="0 0 32 32"><path stroke-linecap="round" stroke-linejoin="round" stroke-width="1.454" d="M3.676 30.468 15.884 5.329S5.202 10.196 2.912 15.872c-2.289 5.676-1.564 10.897 0 14.596"/><path stroke-linejoin="round" stroke-width="1.454" d="M2.903 30.534S40.305-12.509 28.096 6.143c-12.211 18.65 1.244 3.505-5.555 14.321C15.744 31.28 2.905 30.537 2.905 30.537z"/></symbol><symbol id="icon-pinterest" viewBox="0 0 32 32"><path d="M16 2.667C8.657 2.694 2.714 8.653 2.714 16c0 5.599 3.452 10.393 8.343 12.368l.089.032c-.133-1.053-.227-2.667.04-3.827l1.56-6.627s-.4-.8-.4-1.973c0-1.853 1.08-3.227 2.427-3.227 1.133 0 1.693.853 1.693 1.867 0 1.147-.733 2.853-1.12 4.44-.32 1.333.667 2.413 1.987 2.413 2.373 0 4.187-2.493 4.187-6.093 0-3.2-2.293-5.413-5.573-5.413a5.773 5.773 0 0 0-6.026 5.767v.006c0 1.147.44 2.373.987 3.04.107.133.12.253.08.387l-.373 1.507c-.053.24-.2.307-.44.187-1.68-.787-2.72-3.2-2.72-5.173 0-4.2 3.067-8.053 8.827-8.053 4.613 0 8.227 3.28 8.227 7.693 0 4.6-2.907 8.293-6.933 8.293-1.333 0-2.613-.707-3.04-1.533l-.84 3.16a14.611 14.611 0 0 1-1.722 3.618l.034-.055.034-.056c1.17.372 2.516.587 3.911.587 7.364 0 13.333-5.97 13.333-13.333 0-7.347-5.942-13.306-13.282-13.333h-.003L16 2.667z"/></symbol><symbol id="icon-twitter" viewBox="0 0 32 32"><path d="M29.333 7.84c-1 .493-2 .667-3.173.827 1.173-.667 2-1.667 2.333-3a10.548 10.548 0 0 1-3.354 1.31L25 7.001a5.779 5.779 0 0 0-3.992-1.667H21c-2.84 0-5.333 2.507-5.333 5.507 0 .493 0 .827.173 1.16A15.301 15.301 0 0 1 4.551 6.389l-.022-.027-.022-.028a4.952 4.952 0 0 0-.665 2.87l-.001-.016-.001-.015c.033 1.87 1 3.507 2.453 4.468l.02.013.021.013c-.84 0-1.667-.333-2.507-.667 0 2.667 1.84 4.84 4.333 5.333-.493.173-1 .173-1.493.173-.333 0-.667 0-1-.173.667 2.173 2.667 3.84 5.173 3.84a10.475 10.475 0 0 1-6.614 2.335h-.024.001l-.202-.002H2.668c2.365 1.509 5.236 2.429 8.316 2.493h.017c10 0 15.507-8.333 15.507-15.507v-.667a9.86 9.86 0 0 0 2.779-2.903l.024-.041.024-.042h-.002z"/></symbol><symbol id="icon-facebook" viewBox="0 0 32 32"><path d="M13.04 29.333 13 17.666H8v-5h5V9.333c0-4.493 2.787-6.667 6.8-6.667 1.92 0 3.573.133 4.053.2v4.707h-2.787c-2.173 0-2.6 1.04-2.6 2.56v2.533h6.2l-1.667 5h-4.533v11.667H13.04z"/></symbol><symbol id="icon-instagram" viewBox="0 0 32 32"><path d="M17.36 2.667c2.4 0 2.907.027 4.133.08 1.413.067 2.387.293 3.227.627.88.333 1.627.8 2.36 1.533.747.733 1.2 1.48 1.547 2.36.333.84.547 1.813.613 3.24.067 1.267.08 1.76.08 4.427v2.133c0 2.667-.013 3.16-.08 4.427a9.754 9.754 0 0 1-.659 3.361l.023-.067.022-.067c-.347.88-.8 1.627-1.533 2.36a6.658 6.658 0 0 1-2.328 1.532l-.045.015c-.84.333-1.813.547-3.227.613-1.267.067-1.773.08-4.44.08h-2.12c-2.667 0-3.16-.013-4.44-.08a9.754 9.754 0 0 1-3.361-.659l.067.023.067.022a6.617 6.617 0 0 1-2.358-1.532l-.002-.002a6.558 6.558 0 0 1-1.517-2.285l-.015-.044-.015-.045a9.394 9.394 0 0 1-.613-3.209V21.492a68.603 68.603 0 0 1-.08-4.206V17.359v-2.733c0-2.4.027-2.907.08-4.133.067-1.413.293-2.387.613-3.227.347-.88.8-1.627 1.547-2.36A6.286 6.286 0 0 1 7.18 3.401l.043-.014.043-.014a9.373 9.373 0 0 1 3.205-.626h.022c1.227-.053 1.733-.08 4.133-.08h2.734zm.027 2.4H14.6c-2.307 0-2.8.027-4 .08-1.293.053-2 .267-2.467.453a4.077 4.077 0 0 0-1.532.999L6.6 6.6c-.466.467-.76.907-1 1.533-.173.467-.4 1.173-.453 2.48-.053 1.2-.08 1.68-.08 4v2.773c0 2.32.027 2.8.08 4 .053 1.293.267 2 .453 2.467.24.627.533 1.067 1 1.533s.907.76 1.533 1c.467.187 1.173.4 2.48.453 1.293.067 1.76.08 4.64.08h1.48c2.893 0 3.347-.013 4.653-.08 1.293-.053 2-.267 2.467-.453a4.077 4.077 0 0 0 1.532-.999l.001-.001c.466-.467.76-.907 1-1.533.187-.467.4-1.173.453-2.467.067-1.307.08-1.76.08-4.653v-1.467c0-2.893-.013-3.36-.08-4.667-.053-1.293-.267-2-.453-2.467a4.169 4.169 0 0 0-.998-1.531l-.001-.001-.001-.001a4.146 4.146 0 0 0-1.477-.981l-.028-.01-.028-.009a7.182 7.182 0 0 0-2.458-.453H21.386a67.269 67.269 0 0 0-4.063-.08h.064l.001.001zM16 9.147a6.847 6.847 0 1 1 0 13.694 6.848 6.848 0 0 1 0-13.694zm0 2.4a4.447 4.447 0 0 0 0 8.894 4.447 4.447 0 0 0 0-8.894zm7.107-4.267a1.6 1.6 0 1 1 0 3.2 1.6 1.6 0 1 1 0-3.2z"/></symbol><symbol id="icon-arrow" viewBox="0 0 48 32"><path stroke-linecap="round" stroke-width="4" d="m24 24.08-16-16m16 16 16-16"/></symbol></defs></svg>